<?xml version="1.0" standalone="no"?><!DOCTYPE svg PUBLIC "-//W3C//DTD SVG 1.1//EN" "http://www.w3.org/Graphics/SVG/1.1/DTD/svg11.dtd"><svg t="1718766324016" class="icon" viewBox="0 0 1024 1024" version="1.1" xmlns="http://www.w3.org/2000/svg" p-id="4693" width="32" height="32" xmlns:xlink="http://www.w3.org/1999/xlink"><path d="M610.304 326.997333a74.069333 74.069333 0 1 0 74.069333 74.069334 74.069333 74.069333 0 0 0-74.069333-74.069334z" fill="#ABAEB1" p-id="4694"></path><path d="M776.533333 238.933333H271.018667a51.882667 51.882667 0 0 0-51.541334 51.2V785.066667a51.541333 51.541333 0 0 0 51.541334 51.2h505.514666a51.2 51.2 0 0 0 51.2-51.2V290.133333a51.541333 51.541333 0 0 0-51.2-51.2z m17.066667 493.226667l-26.965333-28.330667H750.933333l-7.168-21.162666s-90.112-89.088-109.568-111.616a23.210667 23.210667 0 0 0-36.522666-4.096l-26.965334 29.696c-12.629333 16.384-23.893333 2.730667-23.893333 2.730666l-109.909333-116.736a24.576 24.576 0 0 0-38.229334 0l-145.066666 170.666667V290.133333a17.408 17.408 0 0 1 17.408-17.066666h505.514666a17.408 17.408 0 0 1 17.066667 17.408z" fill="#ABAEB1" p-id="4695"></path></svg>