<?xml version="1.0" standalone="no"?><!DOCTYPE svg PUBLIC "-//W3C//DTD SVG 1.1//EN" "http://www.w3.org/Graphics/SVG/1.1/DTD/svg11.dtd"><svg t="1716707580120" class="icon" viewBox="0 0 1024 1024" version="1.1" xmlns="http://www.w3.org/2000/svg" p-id="4074" width="20" height="20" xmlns:xlink="http://www.w3.org/1999/xlink"><path d="M512 62c248.528 0 450 201.472 450 450S760.528 962 512 962 62 760.528 62 512 263.472 62 512 62z m-77 288.927c-24.3 0-44 19.7-44 44v235.146a44 44 0 0 0 5.325 20.98c11.587 21.36 38.296 29.283 59.656 17.695l216.727-117.573a44 44 0 0 0 17.694-17.694c11.588-21.36 3.666-48.069-17.694-59.656L455.98 356.252A44 44 0 0 0 435 350.927z" fill="#C3CCDF" p-id="4075"></path></svg>